<svg width="318" height="338" viewBox="0 0 318 338" xmlns="http://www.w3.org/2000/svg">
    <g fill="none" fill-rule="evenodd">
        <path d="M83.716 249.414c3.85.18 7.295-1.82 10.687-5.252 4.564-4.619 9.018-11.825 14.128-20.08 11.186-18.068 25.48-41.115 50.645-53.376 23.925-11.658 51.785-13.823 75.242-15.636 20.744-1.603 38.05-2.874 45.942-10.418 3.1-2.963 4.702-6.91 4.46-12.243-.232-5.11-2.144-11.47-6.029-19.427-15.015-30.755-41.087-52.518-71.102-62.843-30.015-10.324-63.973-9.21-94.758 5.79-33.324 16.237-60.843 41.544-71.754 73.202-9.247 26.826-6.545 58.2 14.62 92.448 12.08 19.548 20.65 27.496 27.919 27.835z" stroke="#979797" stroke-width="1.003" fill="#D8D8D8" opacity=".15"/>
        <g fill-rule="nonzero">
            <ellipse cx="141.482" cy="8.238" rx="141.482" ry="8.238" transform="translate(34.36 321.403)" fill="#F5F5F5" opacity=".398"/>
            <path d="M92.736 311.091H53.091a3.52 3.52 0 0 1-3.488-3.515v-16.22c.002-.83.297-1.63.832-2.264l44.804-53.123a3.536 3.536 0 0 1 2.7-1.252h17.17a3.52 3.52 0 0 1 3.524 3.515v49.485a3.52 3.52 0 0 0 3.525 3.515h4.531a3.52 3.52 0 0 1 3.525 3.514v12.801a3.51 3.51 0 0 1-1.033 2.485 3.53 3.53 0 0 1-2.492 1.03h-4.531a3.52 3.52 0 0 0-3.525 3.515v10.188a3.52 3.52 0 0 1-3.524 3.515H99.785a3.52 3.52 0 0 1-3.525-3.515v-10.188a3.52 3.52 0 0 0-3.524-3.486zm3.524-22.29v-19.794a2.46 2.46 0 0 0-1.62-2.35 2.47 2.47 0 0 0-2.758.756L75.02 287.207a2.454 2.454 0 0 0-.361 2.624 2.467 2.467 0 0 0 2.236 1.43h16.87a2.47 2.47 0 0 0 1.764-.71 2.456 2.456 0 0 0 .732-1.75zM138.167 281.917c0-17.466 3.162-29.703 9.486-36.714 6.324-7.01 15.94-10.503 28.846-10.479 6.207 0 11.315.764 15.323 2.293a28.275 28.275 0 0 1 9.75 5.96 31.753 31.753 0 0 1 5.946 7.713 40.108 40.108 0 0 1 3.495 9.46 87.855 87.855 0 0 1 2.584 21.461c0 16.694-2.834 28.91-8.501 36.648-5.668 7.738-15.42 11.62-29.254 11.643-7.784 0-14.057-1.234-18.82-3.704a30.419 30.419 0 0 1-11.828-10.9c-2.228-3.397-3.96-8.03-5.195-13.9a95.08 95.08 0 0 1-1.832-19.481zm25.423.058c0 11.716 1.039 19.721 3.116 24.015 2.077 4.293 5.086 6.44 9.026 6.44a9.502 9.502 0 0 0 6.765-2.736c1.911-1.82 3.317-4.696 4.217-8.631.9-3.935 1.35-10.062 1.35-18.382 0-12.211-1.038-20.42-3.116-24.626-2.077-4.206-5.19-6.31-9.34-6.31-4.242 0-7.304 2.145-9.187 6.434-1.882 4.288-2.826 12.22-2.83 23.796zM264.64 311.091h-39.638a3.52 3.52 0 0 1-3.525-3.515v-16.22c0-.828.292-1.63.825-2.264l44.81-53.123a3.52 3.52 0 0 1 2.693-1.252h17.178a3.52 3.52 0 0 1 3.524 3.515v49.485a3.51 3.51 0 0 0 1.03 2.512 3.53 3.53 0 0 0 2.516 1.032h4.525a3.52 3.52 0 0 1 3.524 3.515v12.8a3.52 3.52 0 0 1-3.524 3.515h-4.525a3.52 3.52 0 0 0-3.524 3.515v10.188a3.52 3.52 0 0 1-3.524 3.515H271.68a3.52 3.52 0 0 1-3.525-3.515v-10.188a3.52 3.52 0 0 0-3.517-3.515zm3.524-22.29v-19.794a2.46 2.46 0 0 0-1.615-2.304 2.47 2.47 0 0 0-2.727.71l-16.87 19.794a2.454 2.454 0 0 0-.365 2.618 2.467 2.467 0 0 0 2.225 1.436h16.863a2.47 2.47 0 0 0 1.759-.713c.467-.462.73-1.09.73-1.747z" fill="#839194"/>
            <path d="M108.578 244.235c-.679 1.456-1.394 2.766-2.087 4.12l-2.043 4.038-2.043 4.054c-.686 1.36-1.394 2.721-2.233 4.06.125-1.56.426-3.1.897-4.592a26.817 26.817 0 0 1 1.73-4.366c.7-1.404 1.53-2.739 2.48-3.988a16.884 16.884 0 0 1 3.299-3.326zM111.176 247.656c-.635 1.259-1.292 2.445-1.934 3.638l-1.89 3.566-1.89 3.58c-.635 1.201-1.284 2.41-2.058 3.588.137-1.389.428-2.758.869-4.082a24.393 24.393 0 0 1 1.612-3.85 21.447 21.447 0 0 1 2.284-3.508 14.896 14.896 0 0 1 3.007-2.932zM104.083 242.802c-.562 1.31-1.16 2.54-1.744 3.777l-1.715 3.704-1.715 3.711c-.583 1.245-1.175 2.496-1.89 3.726a18.51 18.51 0 0 1 .679-4.162c.366-1.364.854-2.691 1.46-3.967a22.544 22.544 0 0 1 2.108-3.638 15.507 15.507 0 0 1 2.817-3.151zM271.433 298.108a17.087 17.087 0 0 1 3.298 3.348c.97 1.25 1.82 2.587 2.54 3.995a27.195 27.195 0 0 1 1.721 4.366c.47 1.493.774 3.033.905 4.592-.846-1.339-1.547-2.7-2.24-4.06l-2.043-4.054-2.043-4.039a536.947 536.947 0 0 1-2.138-4.148zM268.864 301.529a15.217 15.217 0 0 1 3 2.91 21.345 21.345 0 0 1 2.283 3.516 23.1 23.1 0 0 1 1.613 3.85c.446 1.322.74 2.692.875 4.082-.773-1.18-1.422-2.387-2.065-3.588l-1.89-3.58-1.89-3.566a92.481 92.481 0 0 1-1.926-3.624zM275.95 296.675a15.545 15.545 0 0 1 2.86 3.13 22.013 22.013 0 0 1 2.102 3.638 24.053 24.053 0 0 1 1.459 3.966c.38 1.358.608 2.754.679 4.162-.73-1.237-1.314-2.481-1.89-3.726l-1.715-3.718-1.715-3.697a95.444 95.444 0 0 1-1.78-3.755z" fill="#FFF"/>
            <g transform="translate(44.071 58.491)">
                <path d="M260.563 81.972a29.825 29.825 0 0 0-9.486-1.39 25.36 25.36 0 0 0-9.121 1.753 14.013 14.013 0 0 0-3.408 1.922c-.102.087-.22.167-.3.247-.08.08-.16.138-.291.277-.132.138-.475.487-.73.727a16.35 16.35 0 0 0-1.292 1.667 18.163 18.163 0 0 0-3.02 8.005 14.711 14.711 0 0 0 .05 4.09c.098.636.247 1.264.446 1.877.198.614.442 1.212.73 1.79a36.138 36.138 0 0 0 2.707 4.301c1.116 1.586 2.408 3.318 3.648 5.436a24.028 24.028 0 0 1 3.043 7.612 19.27 19.27 0 0 1 .321 4.6 19.049 19.049 0 0 1-.795 4.453 21.087 21.087 0 0 1-7.26 10.494 22.402 22.402 0 0 1-3.489 2.248 25.588 25.588 0 0 1-7.56 2.496 32.032 32.032 0 0 1-7.464.35 39.173 39.173 0 0 1-7.042-1.15 56.962 56.962 0 0 1-6.385-2.06c-4.057-1.55-7.735-3.325-11.245-4.832a50.876 50.876 0 0 0-10.142-3.405 24.143 24.143 0 0 0-4.81-.48 26.704 26.704 0 0 0-4.88.465 37.589 37.589 0 0 0-9.75 3.435c-6.377 3.209-12.273 8.1-18.374 13.222a5.483 5.483 0 0 1-7.688-.617 5.448 5.448 0 0 1 .566-7.671c6.02-5.233 12.362-10.843 20.228-15.035a48.71 48.71 0 0 1 12.726-4.73 37.992 37.992 0 0 1 7.027-.808c2.39-.053 4.778.135 7.129.56a62.207 62.207 0 0 1 12.66 3.908c3.868 1.58 7.436 3.202 10.88 4.44a45.531 45.531 0 0 0 5.05 1.528c1.575.377 3.183.606 4.801.684 2.846.232 5.7-.32 8.253-1.594a10.115 10.115 0 0 0 1.518-1.033 8.985 8.985 0 0 0 1.211-1.201 8.092 8.092 0 0 0 1.518-2.911c.135-.474.21-.963.219-1.455a5.552 5.552 0 0 0-.131-1.354 11.36 11.36 0 0 0-1.518-3.384c-.81-1.31-1.92-2.78-3.138-4.432a48.016 48.016 0 0 1-3.802-5.821 26.997 26.997 0 0 1-1.634-3.697 25.995 25.995 0 0 1-1.022-3.915 28.363 28.363 0 0 1-.299-7.838 31.963 31.963 0 0 1 5.035-14.285 30.46 30.46 0 0 1 2.313-3.115c.43-.494.868-.982 1.328-1.455.212-.226.518-.51.788-.764.27-.255.555-.488.832-.728a27.955 27.955 0 0 1 6.888-4.133 39.583 39.583 0 0 1 14.259-3.042c4.787-.152 9.568.47 14.156 1.84a7.273 7.273 0 0 1 4.467 8.902c-1.097 3.678-4.868 5.874-8.619 5.02l-.102-.014z" fill="#263238"/>
                <path d="M260.388 82.561a29.862 29.862 0 0 0-12.2-1.455c-1.99.18-3.95.6-5.838 1.251a14.606 14.606 0 0 0-4.32 2.344l-.416.356a7.053 7.053 0 0 1-9.946-.422 7.007 7.007 0 0 1 .423-9.919 27.735 27.735 0 0 1 8.88-5.821 39.385 39.385 0 0 1 9.29-2.584A45.236 45.236 0 0 1 265 67.505a7.895 7.895 0 0 1 5.56 5.604 7.87 7.87 0 0 1-2.087 7.605 7.92 7.92 0 0 1-7.647 2l-.387-.117-.051-.036z" fill="#6064D3"/>
                <path d="m124.328 172.624 2.707 4.206c-2.722 1.419-5.568 1.208-8.472 1.208-1.233-5.691 5.765-5.414 5.765-5.414z" fill="#263238"/>
                <path d="M107.829 150.173c3.452 9.905 16.25 23.04 16.25 23.04s-5.4 1.077-3.933 4.796h7.538l16.229-3.05a2.183 2.183 0 0 0 1.663-2.481l-5.99-20.041-31.757-2.264z" fill="#6064D3"/>
                <path d="m170.78 155.842 1.46 5.902c2.86-1.128 5.276-1.9 6.516-4.548-1.437-3.682-7.976-1.354-7.976-1.354z" fill="#263238"/>
                <path d="M157.967 125.562c5.108 9.126 15.878 31.38 15.878 31.38s5.531.232 4.794 4.11l-21.446 5.284a2.302 2.302 0 0 1-2.656-.88l-15.323-12.94c8.362-5.093 18.096-18.462 18.753-26.954z" fill="#6064D3"/>
                <path d="M148.028 144.708a39.608 39.608 0 0 1-8.756 7.838l4.378 3.558c4.721-4.213 6.064-8.725 4.378-11.396z" fill="#000" opacity=".1"/>
                <path d="M142.57 99.066c5.954 1.011 30.684-2.336 32.523-2.424.197-1.36.825-4.73 2.306-4.133 1.481.597 2.24 3.144 1.94 4.366 3.51-.626 8.122 6.55 2.876 12.372-7.684 8.601-35.756 9.918-35.756 9.918s-15.228-18.673-3.889-20.1z" fill="#6064D3"/>
                <path d="M144.424 110.513a8.135 8.135 0 0 0-3.518.385 62.216 62.216 0 0 0 5.56 8.267s5.663-.269 12.595-1.331c-3.816-2.722-9.865-6.557-14.637-7.321z" fill="#000" opacity=".1"/>
                <path d="M179.34 96.853c3.546-1.455 6.027-2.183 6.844-.967.818 1.215-.277 3.77-3.706 4.431-3.145-1.964-3.138-3.464-3.138-3.464z" fill="#6064D3"/>
                <path d="M181.646 99.88c3.736-.123 6.239.095 6.567 1.456.328 1.361-1.554 3.34-4.896 2.766-2.197-2.853-1.671-4.221-1.671-4.221z" fill="#6064D3"/>
                <path d="M184.003 103.687c2.4 1.113 3.874 2.088 3.436 3.26-.437 1.172-2.517 2.074-4.378.546-.022-2.926.942-3.806.942-3.806zM96.854 117.673c-2.743 5.364-20.227 23.12-21.402 24.546-1.211-.662-4.29-2.183-4.692-.633-.401 1.55 1.182 3.675 2.32 4.148-2.597 2.43.387 10.4 8.246 9.715 11.508-1.004 29.349-22.639 29.349-22.639s-5.903-23.352-13.82-15.137z" fill="#6064D3"/>
                <path d="M104.94 125.999a8.305 8.305 0 0 1 2.415-2.584 61.505 61.505 0 0 1 3.32 9.395s-3.598 4.366-8.603 9.264c.095-4.672.627-11.804 2.867-16.075z" fill="#000" opacity=".1"/>
                <path d="M73.08 145.734c-3.305 1.95-5.355 3.515-4.866 4.89.488 1.376 3.196 2.038 5.779-.305.299-3.69-.912-4.585-.912-4.585z" fill="#6064D3"/>
                <path d="M74.124 149.395c-2.335 2.91-3.648 5.036-2.729 6.12.92 1.084 3.605.728 5.144-2.27-.956-3.457-2.415-3.85-2.415-3.85z" fill="#6064D3"/>
                <path d="M75.788 153.55c-.547 2.583-.642 4.366.569 4.701 1.211.335 3.167-.771 3.036-3.158-2.35-1.783-3.605-1.543-3.605-1.543z" fill="#6064D3"/>
                <path d="M139.6 152.51v-.044l-9.705-.728c-.197 4.17 4.67 6.811 11.208 5.69l-1.503-4.919z" fill="#000" opacity=".1"/>
                <path d="m141.395 102.413-20.023 8.55-20.015 8.552s2.13 25.805 8.698 34.646c6.567 8.842 19.25 6.12 30.45 1.332 11.201-4.788 21.891-12.058 20.038-22.901-1.854-10.843-19.148-30.179-19.148-30.179z" fill="#6064D3"/>
                <path d="m132.683 107.238-10.902 4.657-10.895 4.658c.161-2.118-4.29 17.581 3.299 28.082 4.947 6.841 14.185 4.963 22.307 1.492 8.121-3.47 15.849-8.842 14.295-17.13-2.38-12.713-19.746-23.083-18.104-21.759z" fill="#FFF" opacity=".2"/>
                <path d="m129.217 110.309-7.297 3.1-7.261 3.107c.051-1.528-2.466 12.64 2.919 20.442 3.524 5.094 9.734 3.959 15.148 1.645 5.415-2.314 10.523-6.019 9.26-12.073-1.89-9.279-13.922-17.233-12.77-16.221z" fill="#FFF" opacity=".2"/>
                <ellipse fill="#FFF" opacity=".2" transform="rotate(-21.86 76.862 149.386)" cx="76.862" cy="149.386" rx="2.692" ry="3.473"/>
                <path d="M182.47 103.483c.139 1.914-.948 3.551-2.43 3.639-1.481.087-2.802-1.354-2.918-3.26-.117-1.907.948-3.552 2.43-3.64 1.48-.087 2.78 1.354 2.918 3.261z" fill="#FFF" opacity=".2"/>
                <path d="M77.546 55.57C48.453 35.034 3.752 47.63.242 55.388c-3.729 8.26 36.755 30.506 46.7 52.003C61.465 80.487 77.547 55.57 77.547 55.57z" fill="#263238"/>
                <path d="M66.827 63.99c-23.03-16.01-55.501-8.806-57.603-3.348-2.24 5.822 29.393 23.542 38.23 39.479C56.464 81.309 66.826 63.99 66.826 63.99z" fill="#6064D3" opacity=".5"/>
                <path d="M69.695 60.104c-6.524.436-12.048 2.62-16.915 7.743a13.388 13.388 0 0 1 12.872 2.656l4.043-10.4zM112.36 40.688c13.982-43.998 63.776-44.172 73.7-37.514 7.538 5.094-24.561 25.42-15.958 54.761-28.955-9.882-57.742-17.247-57.742-17.247z" fill="#263238"/>
                <path d="M125.517 39.735c11.675-25.47 38.908-35.658 51.626-33.38 12.026 2.139-23.905 30.105-16.564 54.724-17.352-11.644-35.062-21.344-35.062-21.344z" fill="#6064D3" opacity=".5"/>
                <path d="M124.722 35.805a19.428 19.428 0 0 1 14.834-1.506 10.68 10.68 0 0 0-7.807 7.044l-7.027-5.538z" fill="#263238"/>
                <path d="M125.327 33.738a15.494 15.494 0 0 1 11.136-4.148 8.506 8.506 0 0 0-4.598 7.008l-6.538-2.86z" fill="#263238"/>
                <path d="M178.712 60.184c7.356 17.116-19.176 37.841-56.114 53.625-36.937 15.785-70.285 20.646-77.662 3.522-7.377-17.123 10.391-58.297 47.328-74.081 36.938-15.784 79.093-.19 86.448 16.934z" fill="#6064D3"/>
                <path d="M164.133 61.814c6.815 15.871-13.967 34.064-43.782 46.8-29.816 12.734-57.348 15.187-64.163-.692-6.815-15.879 9.661-44.078 39.462-56.806 29.801-12.727 61.66-5.181 68.483 10.698z" fill="#000" opacity=".1"/>
                <path d="M104.166 84.948c-.642-1.5 1.32-3.217 4.13-4.425 2.81-1.208 5.422-1.455 6.064.066.642 1.52-.343 5.487-3.16 6.695-2.816 1.208-6.392-.837-7.034-2.336z" fill="#263238"/>
                <path d="M110.128 98.316c-.43-1.019 1.634-2.496 4.45-3.697 2.817-1.2 5.313-1.673 5.744-.662.43 1.012-.971 4.024-3.78 5.225-2.81 1.2-5.977.146-6.414-.866z" fill="#000" opacity=".3"/>
                <path d="M58.005 85.967c4.02-11.484 13.208-20.005 22.577-22.137 15.798-3.595 20.432 16.133 12.799 29.734-8.523 15.224-27.35 12.903-29.188 5.938-2.649 4.636-13.42 7.06-6.188-13.535z" fill="#FFF" opacity=".4"/>
                <path d="M93.388 73.035s-1.072 13.98-8.472 18.92c-7.399 4.942-18.33-1.112-18.33-1.112s1.073-13.973 8.472-18.921c7.4-4.949 18.33 1.113 18.33 1.113z" fill="#FFF"/>
                <path d="M66.586 90.77a31.438 31.438 0 0 1 1.46-10.101 22.586 22.586 0 0 1 2.087-4.788 14.899 14.899 0 0 1 3.437-4.112 11.484 11.484 0 0 1 4.918-2.336 14.765 14.765 0 0 1 5.327-.146A22.986 22.986 0 0 1 93.374 73a34.61 34.61 0 0 0-9.705-2.183 15.093 15.093 0 0 0-4.743.436 9.744 9.744 0 0 0-4.101 2.052 13.663 13.663 0 0 0-3.087 3.544l-.336.503-.299.53c-.19.357-.401.729-.584 1.07-.343.728-.73 1.456-1.014 2.235a58.688 58.688 0 0 0-2.919 9.584z" fill="#263238"/>
                <path d="M113.127 64.565s10.887 8.87 19.548 6.913c8.662-1.958 11.836-14.001 11.836-14.001s-10.88-8.871-19.549-6.914c-8.668 1.958-11.835 14.002-11.835 14.002z" fill="#FFF"/>
                <path d="M144.511 57.477a59.637 59.637 0 0 0-8.968-4.49c-.73-.306-1.554-.539-2.328-.8-.386-.125-.788-.212-1.182-.321l-.584-.153-.598-.102a13.901 13.901 0 0 0-4.7-.218 9.883 9.883 0 0 0-4.319 1.55 14.837 14.837 0 0 0-3.583 3.122 34.133 34.133 0 0 0-5.108 8.5 22.78 22.78 0 0 1 3.897-9.46 14.786 14.786 0 0 1 3.78-3.749 11.482 11.482 0 0 1 5.108-1.935 14.955 14.955 0 0 1 5.348.356 22.66 22.66 0 0 1 4.875 1.79 31.698 31.698 0 0 1 8.362 5.91z" fill="#263238"/>
                <ellipse fill="#263238" transform="rotate(-13.67 84.565 81.773)" cx="84.565" cy="81.773" rx="7.901" ry="7.882"/>
                <path d="M78.218 82.24a3.33 3.33 0 0 0 4.37 1.732 3.315 3.315 0 0 0 1.741-4.357 3.33 3.33 0 0 0-6.148.082 3.31 3.31 0 0 0 .037 2.544z" fill="#FFF"/>
                <ellipse fill="#263238" transform="rotate(-68.19 125.277 64.378)" cx="125.277" cy="64.378" rx="7.884" ry="7.9"/>
                <path d="M118.928 64.841a3.33 3.33 0 0 0 4.371 1.732 3.315 3.315 0 0 0 1.74-4.358 3.33 3.33 0 0 0-4.367-1.74 3.315 3.315 0 0 0-1.784 1.82 3.303 3.303 0 0 0 .04 2.546zM85.726 82.255a1.33 1.33 0 0 0 1.746.686c.672-.291.981-1.07.69-1.74a1.33 1.33 0 0 0-1.742-.692 1.33 1.33 0 0 0-.694 1.746zM126.436 64.856a1.33 1.33 0 0 0 1.732.713c.676-.278 1-1.048.724-1.724a1.33 1.33 0 0 0-1.726-.729 1.32 1.32 0 0 0-.73 1.74z" fill="#FFF"/>
                <path d="M122.197 89.678c-.401.255-.803.517-1.219.728-.416.21-.875.415-1.335.582a9.283 9.283 0 0 1-2.919.517 7.702 7.702 0 0 1-2.97-.64 6.96 6.96 0 0 1-2.503-1.856l1.19-.51a7.048 7.048 0 0 1-.38 3.093 7.652 7.652 0 0 1-1.583 2.583 9.062 9.062 0 0 1-2.386 1.747c-.438.21-.886.397-1.343.56a26.28 26.28 0 0 1-1.394.364c.416-.247.832-.473 1.24-.728.41-.254.789-.487 1.154-.778a10.437 10.437 0 0 0 1.933-1.863 7.444 7.444 0 0 0 1.183-2.307c.126-.41.214-.832.262-1.259a5.262 5.262 0 0 0 0-1.223.67.67 0 0 1 .57-.727c.235-.03.47.063.62.247.265.313.56.598.883.852a8.03 8.03 0 0 0 1.094.67 7.641 7.641 0 0 0 2.488.727c.9.08 1.805.041 2.693-.117.46-.058.905-.203 1.365-.29.46-.088.897-.24 1.357-.372z" fill="#263238"/>
                <path d="M111.784 89.3a.679.679 0 0 1-.613-.4l-2.021-4.738a.662.662 0 0 1 .35-.866.658.658 0 0 1 .876.35l2.036 4.73a.66.66 0 0 1-.613.924h-.015z" fill="#263238"/>
                <path d="M45.461 99.4c-5.917 2.773-10.215 8.668-11.288 15.646 5.225-6.36 11.318-4.49 11.318-4.49L45.46 99.4zM46.067 116.596a15.696 15.696 0 0 0 1.058 14.657c-.058-6.259 4.422-8.122 4.422-8.122l-5.48-6.535z" fill="#6064D3"/>
                <path d="M45.724 106.99c-5.962 4.44-9.377 11.986-9.019 20.02 4.378-8.289 11.602-7.583 11.602-7.583l-2.583-12.436zM165.337 48.176c6.093-2.357 13.317-1.368 19.147 2.642-8.224-.611-11.07 5.094-11.07 5.094l-8.077-7.736zM175.45 60.184c4.911-.793 10.267-.175 13.551 3.012a17.132 17.132 0 0 0-11.018 4.003l-2.533-7.015z" fill="#6064D3"/>
                <path d="M173.809 59.47c4.458 2.184 8.442 5.822 9.245 10.327a17.116 17.116 0 0 0-11.296-3.158l2.05-7.168z" fill="#6064D3"/>
                <path d="M170.678 53.605c7.334-1.244 15.163 1.5 20.753 7.277-9.034-2.554-13.507 3.144-13.507 3.144l-7.246-10.42zM87.988 46.495c-.277-4.119 1.715-7.663 6.648-11.323-1.036 5.88 3.233 7.35 3.233 7.35l-9.88 3.973z" fill="#6064D3"/>
                <path d="M93.374 44.203c.977-4.788 5.896-9.46 13.054-12.466-5.108 5.487-.992 8.893-.992 8.893l-12.062 3.573z" fill="#6064D3"/>
                <path d="M52.664 130.198a.358.358 0 0 1-.183-.059.327.327 0 0 1-.087-.458c19.344-28.832 54.545-40.207 54.895-40.316a.343.343 0 0 1 .423.219.335.335 0 0 1-.219.414c-.35.11-35.332 11.418-54.552 40.025a.314.314 0 0 1-.277.175z" fill="#263238"/>
                <path d="M57.99 148.361a.293.293 0 0 1-.11 0 .335.335 0 0 1-.21-.422c13.353-38.896 48.306-55.75 48.656-55.91a.329.329 0 0 1 .438.153.327.327 0 0 1-.154.443c-.35.168-35.025 16.905-48.306 55.533a.343.343 0 0 1-.314.203zM115.571 86.52a.314.314 0 0 1-.284-.168.32.32 0 0 1 .116-.45c.321-.19 32.48-18.434 66.878-13.238a.321.321 0 0 1 .277.371.35.35 0 0 1-.38.284c-34.157-5.167-66.118 12.968-66.403 13.157a.336.336 0 0 1-.204.044z" fill="#263238"/>
                <path d="M184.586 88.965a.234.234 0 0 1-.102 0c-40.717-13.099-65.972-1.455-66.228-1.324a.332.332 0 0 1-.472-.325.33.33 0 0 1 .188-.272c.248-.124 25.722-11.906 66.717 1.288a.342.342 0 0 1 .211.422.328.328 0 0 1-.314.211z" fill="#263238"/>
            </g>
            <g transform="translate(117.358 290.3)">
                <ellipse fill="#6064D3" transform="rotate(-47.2 23.677 23.631)" cx="23.677" cy="23.631" rx="16.737" ry="16.74"/>
                <path d="M70.707 41.073c-8.304 0-11.238-3.137-14.069-6.164A24.366 24.366 0 0 0 53.566 32c-4.247-3.232-10.946-4.71-14.324-3.16a.726.726 0 0 1-.591-1.274c3.867-1.767 11.084-.246 15.769 3.313 1.17.937 2.26 1.971 3.254 3.092 2.744 2.948 5.342 5.727 13.033 5.727 3.824.101 7.394-1.9 9.296-5.21a8.364 8.364 0 0 0 .11-8.47c-1.744-2.802-5.335-4.229-10.121-4.003a.73.73 0 0 1-.8-.249.726.726 0 0 1 .734-1.156c5.32-.24 9.362 1.412 11.383 4.665a9.787 9.787 0 0 1-.073 9.897 11.791 11.791 0 0 1-10.53 5.902zM30.755 36.4A37.273 37.273 0 0 1 6.741 27.32a.726.726 0 0 1 .068-.878.731.731 0 0 1 .866-.17c5.838 5.196 16.258 10.115 27.882 8.369a.731.731 0 0 1 .82.164.726.726 0 0 1-.608 1.226c-1.66.248-3.336.372-5.014.37z" fill="#6064D3"/>
                <path d="M28.917 38.482c-8.604 0-15.952-3.376-22.366-10.26a.726.726 0 0 1 0-.99.731.731 0 0 1 1 0c7.1 7.626 15.397 10.748 25.357 9.57a.731.731 0 0 1 .823.182.726.726 0 0 1-.655 1.207 34.6 34.6 0 0 1-4.16.291z" fill="#6064D3"/>
                <path d="M16.205 39.326a.729.729 0 0 1-.73-.655c-.612-8.208 2.226-21.278 9.932-31.968a.731.731 0 0 1 .884-.028c.268.19.375.535.261.843-7.472 10.413-10.237 23.098-9.66 31.052a.728.728 0 0 1-.65.727l-.037.03z" fill="#6064D3"/>
                <path d="M9.207 32.813a.731.731 0 0 1-.38-.109.727.727 0 0 1-.218-.968c2.452-3.864 11.559-16.825 25.831-21.373a.73.73 0 0 1 .883.451.727.727 0 0 1-.452.88c-13.82 4.41-22.686 17.03-25.073 20.792a.73.73 0 0 1-.59.327z" fill="#6064D3"/>
                <path d="M9.207 32.813a.673.673 0 0 1-.262-.05.727.727 0 0 1-.394-.91A40.277 40.277 0 0 1 32.63 9.03a.727.727 0 0 1 .467 1.324A38.87 38.87 0 0 0 9.835 32.378a.73.73 0 0 1-.628.436z" fill="#6064D3"/>
                <path d="M14.126 38.104a.73.73 0 0 1-.73-.626c-1.766-15.166 3.225-23.84 8.888-30.95a.731.731 0 0 1 .985-.116c.295.247.346.68.116.99-5.472 6.876-10.296 15.281-8.588 29.916a.728.728 0 0 1-.62.778l-.051.008z" fill="#6064D3"/>
                <path d="M12.17 36.517a.73.73 0 0 1-.679-.51c-2.189-8.04-.562-20.615 8.37-29.239a.731.731 0 0 1 .992 0 .726.726 0 0 1 0 .997c-8.136 7.852-10.179 19.954-7.99 27.85a.727.727 0 0 1-.489.866l-.204.036z" fill="#6064D3"/>
                <path d="M40.242 26.693a.731.731 0 0 1-.409-.13c-10.435-7.49-23.16-10.247-31.136-9.65a.728.728 0 0 1-.103-1.405c8.231-.604 21.337 2.22 32.064 9.912a.726.726 0 0 1-.416 1.273z" fill="#6064D3"/>
                <path d="M40.388 24.75a.644.644 0 0 1-.285-.058c-9.355-4.14-23.511-4.687-32.924-1.28a.731.731 0 0 1-.841.005.727.727 0 0 1 .36-1.323c9.719-3.522 24.32-2.955 33.974 1.317.344.167.5.57.358.924a.73.73 0 0 1-.642.415z" fill="#6064D3"/>
                <path d="M40.358 22.785a.73.73 0 0 1-.518-.225c-6.94-7.525-15.93-10.188-29.188-8.667a.731.731 0 0 1-.823-.183.726.726 0 0 1 .655-1.207c13.544-1.572 23.19 1.324 30.363 9.11a.726.726 0 0 1-.518 1.172h.03z" fill="#6064D3"/>
                <path d="M39.833 19.933a.73.73 0 0 1-.496-.211c-8.676-8.631-20.913-9.876-26.452-8.005a.727.727 0 0 1-.452-1.332c5.874-1.987 18.804-.728 27.896 8.34.26.279.26.71 0 .99a.73.73 0 0 1-.496.218zM36.593 35.026a.615.615 0 0 1-.197 0C19.613 30.07 7.274 18.819 7.156 18.703a.726.726 0 0 1 .083-.875.731.731 0 0 1 .867-.159c.124.117 12.237 11.15 28.691 16.01a.727.727 0 0 1-.204 1.376v-.03z" fill="#6064D3"/>
                <path d="M36.929 34.596a.731.731 0 0 1-.278-.058 186.65 186.65 0 0 1-29.07-16.192.728.728 0 1 1 .81-1.142A184.926 184.926 0 0 0 37.205 33.25a.727.727 0 0 1-.277 1.346z" fill="#6064D3"/>
                <path d="M37.549 33.73a.665.665 0 0 1-.328-.08c-14.354-7.7-29.4-15.173-29.546-15.246a.727.727 0 0 1 .62-1.259c.153.073 15.222 7.561 29.59 15.283a.727.727 0 0 1-.336 1.317v-.015z" fill="#6064D3"/>
                <path d="M38.053 32.959a.673.673 0 0 1-.431-.146C24.59 22.625 8.208 17.895 8.04 17.851a.727.727 0 0 1 .387-1.353c.167.05 16.783 4.84 30.063 15.21.29.246.342.674.117.982a.687.687 0 0 1-.554.269z" fill="#6064D3"/>
                <path d="M39.395 30.135a.731.731 0 0 1-.445-.153C27.012 20.202 8.303 17.895 8.142 17.873a.727.727 0 0 1 .168-1.397c.19 0 19.271 2.38 31.538 12.422.283.253.324.68.094.983a.73.73 0 0 1-.547.254z" fill="#6064D3"/>
                <path d="M17.395 39.894a.73.73 0 0 1-.409-1.266c13.302-9.599 20.899-22.916 20.972-23.047a.73.73 0 1 1 1.226.691c-.073.131-7.823 13.718-21.373 23.491a.731.731 0 0 1-.416.131z" fill="#6064D3"/>
                <g opacity=".3" fill="#000">
                    <path d="M30.755 36.4A37.273 37.273 0 0 1 6.741 27.32a.726.726 0 0 1 .068-.878.731.731 0 0 1 .866-.17c5.838 5.196 16.258 10.115 27.882 8.369a.731.731 0 0 1 .82.164.726.726 0 0 1-.608 1.226c-1.66.248-3.336.372-5.014.37z"/>
                    <path d="M28.917 38.482c-8.604 0-15.952-3.376-22.366-10.26a.726.726 0 0 1 0-.99.731.731 0 0 1 1 0c7.1 7.626 15.397 10.748 25.357 9.57a.731.731 0 0 1 .823.182.726.726 0 0 1-.655 1.207 34.6 34.6 0 0 1-4.16.291z"/>
                    <path d="M16.205 39.326a.729.729 0 0 1-.73-.655c-.612-8.208 2.226-21.278 9.932-31.968a.731.731 0 0 1 .884-.028c.268.19.375.535.261.843-7.472 10.413-10.237 23.098-9.66 31.052a.728.728 0 0 1-.65.727l-.037.03z"/>
                    <path d="M9.207 32.813a.731.731 0 0 1-.38-.109.727.727 0 0 1-.218-.968c2.452-3.864 11.559-16.825 25.831-21.373a.73.73 0 0 1 .883.451.727.727 0 0 1-.452.88c-13.82 4.41-22.686 17.03-25.073 20.792a.73.73 0 0 1-.59.327z"/>
                    <path d="M9.207 32.813a.673.673 0 0 1-.262-.05.727.727 0 0 1-.394-.91A40.277 40.277 0 0 1 32.63 9.03a.727.727 0 0 1 .467 1.324A38.87 38.87 0 0 0 9.835 32.378a.73.73 0 0 1-.628.436z"/>
                    <path d="M14.126 38.104a.73.73 0 0 1-.73-.626c-1.766-15.166 3.225-23.84 8.888-30.95a.731.731 0 0 1 .985-.116c.295.247.346.68.116.99-5.472 6.876-10.296 15.281-8.588 29.916a.728.728 0 0 1-.62.778l-.051.008z"/>
                    <path d="M12.17 36.517a.73.73 0 0 1-.679-.51c-2.189-8.04-.562-20.615 8.37-29.239a.731.731 0 0 1 .992 0 .726.726 0 0 1 0 .997c-8.136 7.852-10.179 19.954-7.99 27.85a.727.727 0 0 1-.489.866l-.204.036z"/>
                    <path d="M40.242 26.693a.731.731 0 0 1-.409-.13c-10.435-7.49-23.16-10.247-31.136-9.65a.728.728 0 0 1-.103-1.405c8.231-.604 21.337 2.22 32.064 9.912a.726.726 0 0 1-.416 1.273z"/>
                    <path d="M40.388 24.75a.644.644 0 0 1-.285-.058c-9.355-4.14-23.511-4.687-32.924-1.28a.731.731 0 0 1-.841.005.727.727 0 0 1 .36-1.323c9.719-3.522 24.32-2.955 33.974 1.317.344.167.5.57.358.924a.73.73 0 0 1-.642.415z"/>
                    <path d="M40.358 22.785a.73.73 0 0 1-.518-.225c-6.94-7.525-15.93-10.188-29.188-8.667a.731.731 0 0 1-.823-.183.726.726 0 0 1 .655-1.207c13.544-1.572 23.19 1.324 30.363 9.11a.726.726 0 0 1-.518 1.172h.03z"/>
                    <path d="M39.833 19.933a.73.73 0 0 1-.496-.211c-8.676-8.631-20.913-9.876-26.452-8.005a.727.727 0 0 1-.452-1.332c5.874-1.987 18.804-.728 27.896 8.34.26.279.26.71 0 .99a.73.73 0 0 1-.496.218zM36.593 35.026a.615.615 0 0 1-.197 0C19.613 30.07 7.274 18.819 7.156 18.703a.726.726 0 0 1 .083-.875.731.731 0 0 1 .867-.159c.124.117 12.237 11.15 28.691 16.01a.727.727 0 0 1-.204 1.376v-.03z"/>
                    <path d="M36.929 34.596a.731.731 0 0 1-.278-.058 186.65 186.65 0 0 1-29.07-16.192.728.728 0 1 1 .81-1.142A184.926 184.926 0 0 0 37.205 33.25a.727.727 0 0 1-.277 1.346z"/>
                    <path d="M37.549 33.73a.665.665 0 0 1-.328-.08c-14.354-7.7-29.4-15.173-29.546-15.246a.727.727 0 0 1 .62-1.259c.153.073 15.222 7.561 29.59 15.283a.727.727 0 0 1-.336 1.317v-.015z"/>
                    <path d="M38.053 32.959a.673.673 0 0 1-.431-.146C24.59 22.625 8.208 17.895 8.04 17.851a.727.727 0 0 1 .387-1.353c.167.05 16.783 4.84 30.063 15.21.29.246.342.674.117.982a.687.687 0 0 1-.554.269z"/>
                    <path d="M39.395 30.135a.731.731 0 0 1-.445-.153C27.012 20.202 8.303 17.895 8.142 17.873a.727.727 0 0 1 .168-1.397c.19 0 19.271 2.38 31.538 12.422.283.253.324.68.094.983a.73.73 0 0 1-.547.254z"/>
                    <path d="M17.395 39.894a.73.73 0 0 1-.409-1.266c13.302-9.599 20.899-22.916 20.972-23.047a.73.73 0 1 1 1.226.691c-.073.131-7.823 13.718-21.373 23.491a.731.731 0 0 1-.416.131z"/>
                </g>
            </g>
        </g>
    </g>
</svg>
